Here’s a first version for Furry Vengeance. Source is a bit distorted, you’ll notice when checking the samples.

Plot:A real estate developer named Dan Sanders (Brendan Fraser) is given the task to develop a forest into a development by his boss Neal Lyman (Ken Jeong) much to the objections of Dan’s son Tyler (Matt Prokop) and his wife Tammy (Brooke Shields). Unfortunately, the animals who live in the forest don’t intend to take the loss of their home lying down, and instead decide to turn the tables on Dan. Tammy is planing an eco friendly fair and Dan’s comapny decides to sponsor it.The Sanders family later finds out that Dan’s company is not eco friendly and wants to cut down the forest to build houses.

www.imdb.com/title/tt0492389/
========================================================
Video
ID : 0
Format : MPEG-4 Visual
Format profile : Advanced Simple@L5
Format settings, BVOP : Yes
Format settings, QPel : No
Format settings, GMC : No warppoints
Format settings, Matrix : Default (H.263)
Muxing mode : Packed bitstream
Codec ID : XVID
Codec ID/Hint : XviD
Duration : 1h 12mn
Bit rate : 1 094 Kbps
Width : 480 pixels
Height : 320 pixels
Display aspect ratio : 3:2
Frame rate : 30.000 fps
Resolution : 8 bits
Colorimetry : 4:2:0
Scan type : Progressive
Bits/(Pixel*Frame) : 0.237
Stream size : 565 MiB (86%)
Writing library : XviD 1.2.1 (UTC 2008-12-04)

Audio
ID : 1
Format : MPEG Audio
Format version : Version 1
Format profile : Layer 3
Mode : Joint stereo
Format_Settings_ModeExtension : MS Stereo
Codec ID : 55
Codec ID/Hint : MP3
Duration : 1h 12mn
Bit rate mode : Constant
Bit rate : 160 Kbps
Channel(s) : 2 channels
Sampling rate : 44.1 KHz
Stream size : 82.7 MiB (13%)
Alignment : Split accross interleaves
Interleave, duration : 33 ms (1.00 video frame)
Interleave, preload duration : 500 ms
Writing library : LAME3.97
========================================================

Screenshots :
 
http://www.postimg.com/image/15000/14380.jpg
 
http://www.postimg.com/image/15000/14381.jpg
 
http://www.postimg.com/image/15000/14382.jpg
 
http://www.postimg.com/image/15000/14383.jpg

========================================================